<svg class="img-fluid" id="outputsvg" xmlns="http://www.w3.org/2000/svg" width="1024" height="1024" viewBox="0 0 10240 10240"><g id="l9v3rsHGTBhzVUabKUdceL" fill="rgb(3,144,252)" style="transform: none;"><g><path id="pj9q57m5y" d="M4870 8208 c-395 -27 -829 -151 -1180 -336 -300 -158 -544 -335 -760 -552 -491 -490 -805 -1135 -892 -1830 -20 -161 -17 -555 5 -720 53 -389 179 -764 368 -1095 269 -472 676 -889 1122 -1150 118 -69 347 -179 474 -229 587 -229 1280 -267 1891 -105 536 142 1006 411 1387 794 463 463 741 977 865 1595 82 410 75 794 -21 1230 -135 612 -478 1203 -934 1610 -640 571 -1457 849 -2325 788z m1434 -1262 c126 -64 204 -170 226 -306 6 -40 10 -345 10 -797 l0 -733 125 -100 c69 -54 134 -104 145 -110 30 -16 59 -74 190 -379 82 -193 118 -287 111 -294 -13 -13 -16 -11 -249 109 l-182 95 85 97 c121 139 122 136 -47 277 -199 166 -873 774 -1085 979 -51 49 -93 96 -93 105 0 31 -42 100 -92 149 -63 63 -130 90 -237 99 -137 10 -243 -32 -328 -132 -32 -38 -61 -56 -159 -100 -65 -30 -127 -60 -138 -66 -20 -12 12 -41 -472 433 l-182 178 -4 88 c-5 116 -37 183 -114 247 -71 57 -131 75 -253 75 -85 0 -103 -3 -156 -29 -73 -34 -145 -108 -171 -176 -26 -68 -26 -219 -1 -293 25 -70 102 -153 175 -188 51 -25 69 -28 167 -28 l110 -1 384 -387 c318 -321 388 -388 411 -388 15 0 111 38 213 84 l186 83 28 -29 c73 -78 177 -113 313 -106 65 4 97 11 137 31 l52 27 556 -563 c306 -309 561 -572 566 -585 12 -32 11 -710 -1 -797 -23 -155 -127 -277 -289 -338 -53 -20 -77 -22 -472 -25 l-416 -3 -5 -77 c-9 -141 -67 -228 -183 -271 -85 -32 -157 -10 -229 69 -51 57 -68 100 -74 198 l-5 82 -396 0 c-443 0 -482 5 -581 65 -99 60 -168 148 -195 251 -15 53 -16 186 -16 1274 0 668 -2 1227 -5 1243 -5 24 -10 27 -47 27 -127 1 -270 58 -368 148 -80 74 -123 145 -149 247 -34 128 -13 234 70 358 68 102 191 191 297 216 22 5 628 8 1399 8 l1361 -2 77 -39z m-2676 -336 c38 -23 72 -75 72 -110 0 -33 -50 -93 -95 -114 -34 -17 -38 -17 -78 3 -46 23 -87 74 -87 110 0 54 76 131 130 131 14 0 40 -9 58 -20z m1617 -729 c16 -9 40 -37 53 -63 22 -42 22 -48 9 -80 -17 -39 -78 -94 -113 -101 -48 -9 -130 55 -140 109 -3 18 -3 42 1 53 10 33 56 82 90 97 33 14 54 11 100 -15z"></path><path id="p1H00cYEqI" d="M5375 6550 c-28 -31 -32 -109 -7 -140 l20 -25 432 0 432 0 19 24 c28 35 26 111 -4 139 -23 22 -26 22 -449 22 -411 0 -425 -1 -443 -20z"></path><path id="p2VLyVUE1" d="M5601 6184 c-25 -32 -28 -100 -5 -132 15 -22 16 -22 335 -22 306 0 320 1 339 20 30 30 28 109 -3 138 -23 22 -29 22 -334 22 l-312 0 -20 -26z"></path><path id="p5rAX3OQc" d="M4870 4920 c-192 -46 -326 -124 -464 -271 -73 -78 -76 -82 -76 -130 0 -27 4 -49 9 -49 5 0 59 -34 120 -75 140 -95 147 -95 243 -14 254 212 568 212 802 -2 88 -81 110 -81 228 4 48 34 101 70 118 79 26 15 30 23 30 60 0 40 -6 50 -76 126 -142 154 -308 246 -508 281 -96 17 -339 12 -426 -9z"></path><path id="p1HYqgV519" d="M4923 4359 c-91 -29 -194 -114 -257 -212 -53 -84 -78 -244 -58 -372 29 -185 175 -344 352 -384 81 -19 259 -14 325 9 218 75 339 273 322 525 -15 216 -152 388 -352 441 -77 21 -257 17 -332 -7z"></path></g></g><g id="l4VWYe0o6a49DYqblaGHeUn" fill="rgb(255,255,255)" style="transform: none;"><g><path id="p10t3CTmZX" d="M3437 7009 c-106 -25 -229 -114 -297 -216 -86 -129 -109 -262 -71 -413 27 -106 69 -176 150 -252 98 -90 241 -147 367 -148 35 0 43 -4 47 -22 3 -13 5 -572 5 -1243 0 -1092 2 -1226 17 -1279 27 -103 96 -191 195 -251 99 -60 138 -65 581 -65 l396 0 5 -82 c6 -98 23 -141 74 -198 76 -84 182 -110 288 -70 117 44 175 130 184 272 l5 77 416 3 c395 3 419 5 472 25 162 61 266 183 289 338 12 87 13 825 1 857 -5 13 -265 281 -577 596 l-569 573 -66 -35 c-143 -77 -305 -50 -418 68 -19 20 -39 36 -44 36 -5 0 -98 -40 -208 -89 l-198 -89 -390 394 c-370 374 -392 394 -418 387 -16 -5 -62 -8 -103 -7 -99 1 -170 34 -239 109 -61 67 -85 134 -85 230 0 124 69 228 189 286 111 53 249 35 349 -46 77 -64 109 -131 114 -247 l4 -88 182 -178 c99 -97 244 -239 321 -314 78 -76 147 -138 153 -138 7 0 32 9 55 19 23 11 91 42 151 70 87 40 117 59 149 95 107 126 247 163 402 105 81 -30 195 -159 195 -220 0 -9 42 -56 93 -105 206 -199 859 -789 1072 -968 77 -65 141 -121 142 -125 1 -3 -42 -58 -97 -121 -78 -89 -97 -117 -87 -126 24 -23 444 -234 465 -234 33 0 65 37 58 66 -10 38 -245 585 -272 631 -14 24 -34 47 -44 53 -11 6 -76 56 -145 110 l-125 100 0 733 c0 452 -4 757 -10 797 -22 136 -100 242 -226 306 l-77 39 -1391 2 c-788 0 -1407 -3 -1429 -8z m2803 -494 c20 -21 22 -30 14 -52 -18 -52 -27 -53 -447 -51 l-389 3 -19 24 c-21 26 -18 53 9 84 14 16 47 17 412 17 l397 0 23 -25z m-3 -357 c28 -26 29 -52 3 -78 -19 -19 -33 -20 -309 -20 -288 0 -290 0 -305 22 -21 29 -20 40 5 72 l20 26 282 0 c274 0 281 0 304 -22z m-971 -1259 c131 -23 261 -77 371 -155 65 -47 213 -200 213 -222 0 -7 -14 -21 -30 -30 -17 -9 -68 -43 -113 -75 -45 -33 -88 -61 -94 -64 -7 -3 -42 22 -78 55 -124 113 -260 164 -435 163 -164 -1 -298 -51 -428 -161 l-72 -60 -111 75 c-61 41 -115 75 -120 75 -46 0 91 163 204 243 159 114 318 165 518 166 63 1 142 -4 175 -10z m-41 -563 c234 -62 383 -293 346 -535 -35 -224 -230 -391 -455 -391 -144 1 -238 36 -337 128 -133 122 -180 320 -119 496 45 132 168 256 293 295 74 24 199 27 272 7z"></path><path id="pBxx5Ye7B" d="M3529 6660 c-145 -44 -167 -235 -33 -300 74 -36 149 -19 203 47 66 80 35 199 -63 244 -44 20 -66 22 -107 9z"></path><path id="ph4FWiE2P" d="M5115 5926 c-17 -7 -43 -28 -58 -45 -64 -76 -57 -173 16 -236 68 -59 146 -58 215 1 67 57 79 142 31 220 -39 63 -134 91 -204 60z"></path></g></g></svg>
